{
    "asset" : {
        "generator" : "Khronos glTF Blender I/O v1.7.33",
        "version" : "2.0"
    },
    "scene" : 0,
    "scenes" : [
        {
            "name" : "Scene",
            "nodes" : [
                0,
                1,
                2,
                3,
                4,
                5,
                6,
                7,
                8,
                9,
                10
            ]
        }
    ],
    "nodes" : [
        {
            "mesh" : 0,
            "name" : "back_wall",
            "rotation" : [
                0.7071068286895752,
                0,
                0,
                0.7071067094802856
            ]
        },
        {
            "mesh" : 1,
            "name" : "floor",
            "rotation" : [
                0.7071068286895752,
                0,
                0,
                0.7071067094802856
            ]
        },
        {
            "mesh" : 2,
            "name" : "ceiling",
            "rotation" : [
                0.7071068286895752,
                0,
                0,
                0.7071067094802856
            ]
        },
        {
            "mesh" : 3,
            "name" : "left_wall",
            "rotation" : [
                0.7071068286895752,
                0,
                0,
                0.7071067094802856
            ]
        },
        {
            "mesh" : 4,
            "name" : "right_wall",
            "rotation" : [
                0.7071068286895752,
                0,
                0,
                0.7071067094802856
            ]
        },
        {
            "mesh" : 5,
            "name" : "light",
            "rotation" : [
                0.7071068286895752,
                0,
                0,
                0.7071067094802856
            ]
        },
        {
            "mesh" : 6,
            "name" : "mirror_sphere",
            "rotation" : [
                0.7071068286895752,
                0,
                0,
                0.7071067094802856
            ]
        },
        {
            "mesh" : 7,
            "name" : "glass_sphere",
            "rotation" : [
                0.7071068286895752,
                0,
                0,
                0.7071067094802856
            ]
        },
        {
            "mesh" : 8,
            "name" : "obstacle",
            "rotation" : [
                0.7071068286895752,
                0,
                0,
                0.7071067094802856
            ]
        },
        {
            "mesh" : 9,
            "name" : "cube2",
            "rotation" : [
                0.7071068286895752,
                0,
                0,
                0.7071067094802856
            ]
        },
        {
            "mesh" : 10,
            "name" : "cube1",
            "rotation" : [
                0.7071068286895752,
                0,
                0,
                0.7071067094802856
            ]
        }
    ],
    "materials" : [
        {
            "doubleSided" : true,
            "name" : "Default OBJ",
            "pbrMetallicRoughness" : {
                "baseColorFactor" : [
                    0.725,
                    0.71,
                    0.68,
                    1
                ],
                "metallicFactor" : 0,
                "roughnessFactor" : 0.5
            }
        },
        {
            "doubleSided" : true,
            "name" : "Default OBJ.003",
            "pbrMetallicRoughness" : {
                "baseColorFactor" : [
                    0.63,
                    0.065,
                    0.05,
                    1
                ],
                "metallicFactor" : 0,
                "roughnessFactor" : 0.5
            }
        },
        {
            "doubleSided" : true,
            "name" : "Default OBJ.002",
            "pbrMetallicRoughness" : {
                "baseColorFactor" : [
                    0.14,
                    0.45,
                    0.091,
                    1
                ],
                "metallicFactor" : 0,
                "roughnessFactor" : 0.5
            }
        },
        {
            "doubleSided" : true,
            "emissiveFactor" : [
                100,
                75,
                36
            ],
            "name" : "Default OBJ.001",
            "pbrMetallicRoughness" : {
                "baseColorFactor" : [
                    0.800000011920929,
                    0.800000011920929,
                    0.800000011920929,
                    1
                ],
                "metallicFactor" : 0,
                "roughnessFactor" : 0.5
            }
        }
    ],
    "meshes" : [
        {
            "name" : "back_wall",
            "primitives" : [
                {
                    "attributes" : {
                        "POSITION" : 0,
                        "NORMAL" : 1,
                        "TEXCOORD_0" : 2
                    },
                    "indices" : 3,
                    "material" : 0
                }
            ]
        },
        {
            "name" : "floor",
            "primitives" : [
                {
                    "attributes" : {
                        "POSITION" : 4,
                        "NORMAL" : 5,
                        "TEXCOORD_0" : 6
                    },
                    "indices" : 3,
                    "material" : 0
                }
            ]
        },
        {
            "name" : "ceiling",
            "primitives" : [
                {
                    "attributes" : {
                        "POSITION" : 7,
                        "NORMAL" : 8,
                        "TEXCOORD_0" : 9
                    },
                    "indices" : 3,
                    "material" : 0
                }
            ]
        },
        {
            "name" : "left_wall",
            "primitives" : [
                {
                    "attributes" : {
                        "POSITION" : 10,
                        "NORMAL" : 11,
                        "TEXCOORD_0" : 12
                    },
                    "indices" : 13,
                    "material" : 1
                }
            ]
        },
        {
            "name" : "right_wall",
            "primitives" : [
                {
                    "attributes" : {
                        "POSITION" : 14,
                        "NORMAL" : 15,
                        "TEXCOORD_0" : 16
                    },
                    "indices" : 13,
                    "material" : 2
                }
            ]
        },
        {
            "name" : "light",
            "primitives" : [
                {
                    "attributes" : {
                        "POSITION" : 17,
                        "NORMAL" : 18,
                        "TEXCOORD_0" : 19
                    },
                    "indices" : 20,
                    "material" : 3
                }
            ]
        },
        {
            "name" : "mirror_sphere",
            "primitives" : [
                {
                    "attributes" : {
                        "POSITION" : 21,
                        "NORMAL" : 22,
                        "TEXCOORD_0" : 23
                    },
                    "indices" : 24,
                    "material" : 0
                }
            ]
        },
        {
            "name" : "glass_sphere",
            "primitives" : [
                {
                    "attributes" : {
                        "POSITION" : 25,
                        "NORMAL" : 26,
                        "TEXCOORD_0" : 27
                    },
                    "indices" : 24,
                    "material" : 0
                }
            ]
        },
        {
            "name" : "obstacle",
            "primitives" : [
                {
                    "attributes" : {
                        "POSITION" : 28,
                        "NORMAL" : 29,
                        "TEXCOORD_0" : 30
                    },
                    "indices" : 31,
                    "material" : 0
                }
            ]
        },
        {
            "name" : "cube2",
            "primitives" : [
                {
                    "attributes" : {
                        "POSITION" : 32,
                        "NORMAL" : 33,
                        "TEXCOORD_0" : 34
                    },
                    "indices" : 35,
                    "material" : 0
                }
            ]
        },
        {
            "name" : "cube1",
            "primitives" : [
                {
                    "attributes" : {
                        "POSITION" : 36,
                        "NORMAL" : 37,
                        "TEXCOORD_0" : 38
                    },
                    "indices" : 35,
                    "material" : 0
                }
            ]
        }
    ],
    "accessors" : [
        {
            "bufferView" : 0,
            "componentType" : 5126,
            "count" : 24,
            "max" : [
                5,
                -4.9499969482421875,
                4.999997138977051
            ],
            "min" : [
                -5,
                -5.0500030517578125,
                -5.000002861022949
            ],
            "type" : "VEC3"
        },
        {
            "bufferView" : 1,
            "componentType" : 5126,
            "count" : 24,
            "type" : "VEC3"
        },
        {
            "bufferView" : 2,
            "componentType" : 5126,
            "count" : 24,
            "type" : "VEC2"
        },
        {
            "bufferView" : 3,
            "componentType" : 5123,
            "count" : 36,
            "type" : "SCALAR"
        },
        {
            "bufferView" : 4,
            "componentType" : 5126,
            "count" : 24,
            "max" : [
                5,
                4.999997138977051,
                5.0500030517578125
            ],
            "min" : [
                -5,
                -5.000002861022949,
                4.9499969482421875
            ],
            "type" : "VEC3"
        },
        {
            "bufferView" : 5,
            "componentType" : 5126,
            "count" : 24,
            "type" : "VEC3"
        },
        {
            "bufferView" : 6,
            "componentType" : 5126,
            "count" : 24,
            "type" : "VEC2"
        },
        {
            "bufferView" : 7,
            "componentType" : 5126,
            "count" : 24,
            "max" : [
                5,
                5.000002861022949,
                -4.9499969482421875
            ],
            "min" : [
                -5,
                -4.999997138977051,
                -5.0500030517578125
            ],
            "type" : "VEC3"
        },
        {
            "bufferView" : 8,
            "componentType" : 5126,
            "count" : 24,
            "type" : "VEC3"
        },
        {
            "bufferView" : 9,
            "componentType" : 5126,
            "count" : 24,
            "type" : "VEC2"
        },
        {
            "bufferView" : 10,
            "componentType" : 5126,
            "count" : 28,
            "max" : [
                -4.949999809265137,
                5.000002861022949,
                5.000002861022949
            ],
            "min" : [
                -5.050000190734863,
                -5.000002861022949,
                -5.000002861022949
            ],
            "type" : "VEC3"
        },
        {
            "bufferView" : 11,
            "componentType" : 5126,
            "count" : 28,
            "type" : "VEC3"
        },
        {
            "bufferView" : 12,
            "componentType" : 5126,
            "count" : 28,
            "type" : "VEC2"
        },
        {
            "bufferView" : 13,
            "componentType" : 5123,
            "count" : 36,
            "type" : "SCALAR"
        },
        {
            "bufferView" : 14,
            "componentType" : 5126,
            "count" : 28,
            "max" : [
                5.050000190734863,
                5.000002861022949,
                5.000002861022949
            ],
            "min" : [
                4.949999809265137,
                -5.000002861022949,
                -5.000002861022949
            ],
            "type" : "VEC3"
        },
        {
            "bufferView" : 15,
            "componentType" : 5126,
            "count" : 28,
            "type" : "VEC3"
        },
        {
            "bufferView" : 16,
            "componentType" : 5126,
            "count" : 28,
            "type" : "VEC2"
        },
        {
            "bufferView" : 17,
            "componentType" : 5126,
            "count" : 26,
            "max" : [
                1.5,
                1.5000029802322388,
                -4.576189994812012
            ],
            "min" : [
                -1.5,
                -1.4999970197677612,
                -4.67618989944458
            ],
            "type" : "VEC3"
        },
        {
            "bufferView" : 18,
            "componentType" : 5126,
            "count" : 26,
            "type" : "VEC3"
        },
        {
            "bufferView" : 19,
            "componentType" : 5126,
            "count" : 26,
            "type" : "VEC2"
        },
        {
            "bufferView" : 20,
            "componentType" : 5123,
            "count" : 36,
            "type" : "SCALAR"
        },
        {
            "bufferView" : 21,
            "componentType" : 5126,
            "count" : 962,
            "max" : [
                -1.4111709594726562,
                4.067417144775391,
                4.923410892486572
            ],
            "min" : [
                -3.540817975997925,
                1.9325809478759766,
                2.7917590141296387
            ],
            "type" : "VEC3"
        },
        {
            "bufferView" : 22,
            "componentType" : 5126,
            "count" : 962,
            "type" : "VEC3"
        },
        {
            "bufferView" : 23,
            "componentType" : 5126,
            "count" : 962,
            "type" : "VEC2"
        },
        {
            "bufferView" : 24,
            "componentType" : 5123,
            "count" : 5760,
            "type" : "SCALAR"
        },
        {
            "bufferView" : 25,
            "componentType" : 5126,
            "count" : 962,
            "max" : [
                4.048818111419678,
                2.479609966278076,
                2.9003710746765137
            ],
            "min" : [
                1.9191700220108032,
                0.3447760045528412,
                0.7687180042266846
            ],
            "type" : "VEC3"
        },
        {
            "bufferView" : 26,
            "componentType" : 5126,
            "count" : 962,
            "type" : "VEC3"
        },
        {
            "bufferView" : 27,
            "componentType" : 5126,
            "count" : 962,
            "type" : "VEC2"
        },
        {
            "bufferView" : 28,
            "componentType" : 5126,
            "count" : 24,
            "max" : [
                2.8429250717163086,
                4.2837347984313965,
                -3.371340036392212
            ],
            "min" : [
                -4.927995204925537,
                -5.034601211547852,
                -4.031342029571533
            ],
            "type" : "VEC3"
        },
        {
            "bufferView" : 29,
            "componentType" : 5126,
            "count" : 24,
            "type" : "VEC3"
        },
        {
            "bufferView" : 30,
            "componentType" : 5126,
            "count" : 24,
            "type" : "VEC2"
        },
        {
            "bufferView" : 31,
            "componentType" : 5123,
            "count" : 36,
            "type" : "SCALAR"
        },
        {
            "bufferView" : 32,
            "componentType" : 5126,
            "count" : 24,
            "max" : [
                4,
                2.5243899822235107,
                4.906888008117676
            ],
            "min" : [
                2,
                0.4756079912185669,
                2.906888008117676
            ],
            "type" : "VEC3"
        },
        {
            "bufferView" : 33,
            "componentType" : 5126,
            "count" : 24,
            "type" : "VEC3"
        },
        {
            "bufferView" : 34,
            "componentType" : 5126,
            "count" : 24,
            "type" : "VEC2"
        },
        {
            "bufferView" : 35,
            "componentType" : 5123,
            "count" : 36,
            "type" : "SCALAR"
        },
        {
            "bufferView" : 36,
            "componentType" : 5126,
            "count" : 24,
            "max" : [
                -1.7000000476837158,
                -0.9756090044975281,
                4.909738063812256
            ],
            "min" : [
                -3.700000047683716,
                -3.0243918895721436,
                0.70973801612854
            ],
            "type" : "VEC3"
        },
        {
            "bufferView" : 37,
            "componentType" : 5126,
            "count" : 24,
            "type" : "VEC3"
        },
        {
            "bufferView" : 38,
            "componentType" : 5126,
            "count" : 24,
            "type" : "VEC2"
        }
    ],
    "bufferViews" : [
        {
            "buffer" : 0,
            "byteLength" : 288,
            "byteOffset" : 0
        },
        {
            "buffer" : 0,
            "byteLength" : 288,
            "byteOffset" : 288
        },
        {
            "buffer" : 0,
            "byteLength" : 192,
            "byteOffset" : 576
        },
        {
            "buffer" : 0,
            "byteLength" : 72,
            "byteOffset" : 768
        },
        {
            "buffer" : 0,
            "byteLength" : 288,
            "byteOffset" : 840
        },
        {
            "buffer" : 0,
            "byteLength" : 288,
            "byteOffset" : 1128
        },
        {
            "buffer" : 0,
            "byteLength" : 192,
            "byteOffset" : 1416
        },
        {
            "buffer" : 0,
            "byteLength" : 288,
            "byteOffset" : 1608
        },
        {
            "buffer" : 0,
            "byteLength" : 288,
            "byteOffset" : 1896
        },
        {
            "buffer" : 0,
            "byteLength" : 192,
            "byteOffset" : 2184
        },
        {
            "buffer" : 0,
            "byteLength" : 336,
            "byteOffset" : 2376
        },
        {
            "buffer" : 0,
            "byteLength" : 336,
            "byteOffset" : 2712
        },
        {
            "buffer" : 0,
            "byteLength" : 224,
            "byteOffset" : 3048
        },
        {
            "buffer" : 0,
            "byteLength" : 72,
            "byteOffset" : 3272
        },
        {
            "buffer" : 0,
            "byteLength" : 336,
            "byteOffset" : 3344
        },
        {
            "buffer" : 0,
            "byteLength" : 336,
            "byteOffset" : 3680
        },
        {
            "buffer" : 0,
            "byteLength" : 224,
            "byteOffset" : 4016
        },
        {
            "buffer" : 0,
            "byteLength" : 312,
            "byteOffset" : 4240
        },
        {
            "buffer" : 0,
            "byteLength" : 312,
            "byteOffset" : 4552
        },
        {
            "buffer" : 0,
            "byteLength" : 208,
            "byteOffset" : 4864
        },
        {
            "buffer" : 0,
            "byteLength" : 72,
            "byteOffset" : 5072
        },
        {
            "buffer" : 0,
            "byteLength" : 11544,
            "byteOffset" : 5144
        },
        {
            "buffer" : 0,
            "byteLength" : 11544,
            "byteOffset" : 16688
        },
        {
            "buffer" : 0,
            "byteLength" : 7696,
            "byteOffset" : 28232
        },
        {
            "buffer" : 0,
            "byteLength" : 11520,
            "byteOffset" : 35928
        },
        {
            "buffer" : 0,
            "byteLength" : 11544,
            "byteOffset" : 47448
        },
        {
            "buffer" : 0,
            "byteLength" : 11544,
            "byteOffset" : 58992
        },
        {
            "buffer" : 0,
            "byteLength" : 7696,
            "byteOffset" : 70536
        },
        {
            "buffer" : 0,
            "byteLength" : 288,
            "byteOffset" : 78232
        },
        {
            "buffer" : 0,
            "byteLength" : 288,
            "byteOffset" : 78520
        },
        {
            "buffer" : 0,
            "byteLength" : 192,
            "byteOffset" : 78808
        },
        {
            "buffer" : 0,
            "byteLength" : 72,
            "byteOffset" : 79000
        },
        {
            "buffer" : 0,
            "byteLength" : 288,
            "byteOffset" : 79072
        },
        {
            "buffer" : 0,
            "byteLength" : 288,
            "byteOffset" : 79360
        },
        {
            "buffer" : 0,
            "byteLength" : 192,
            "byteOffset" : 79648
        },
        {
            "buffer" : 0,
            "byteLength" : 72,
            "byteOffset" : 79840
        },
        {
            "buffer" : 0,
            "byteLength" : 288,
            "byteOffset" : 79912
        },
        {
            "buffer" : 0,
            "byteLength" : 288,
            "byteOffset" : 80200
        },
        {
            "buffer" : 0,
            "byteLength" : 192,
            "byteOffset" : 80488
        }
    ],
    "buffers" : [
        {
            "byteLength" : 80680,
            "uri" : "occluderscene.bin"
        }
    ]
}
