{
    "asset" : {
        "generator" : "Khronos glTF Blender I/O v1.7.33",
        "version" : "2.0"
    },
    "scene" : 0,
    "scenes" : [
        {
            "name" : "Scene",
            "nodes" : [
                0,
                1,
                2,
                3,
                4,
                5,
                6
            ]
        }
    ],
    "nodes" : [
        {
            "mesh" : 0,
            "name" : "Sphere",
            "translation" : [
                -4,
                1.100000023841858,
                -3
            ]
        },
        {
            "mesh" : 1,
            "name" : "Cube",
            "rotation" : [
                0.7071068286895752,
                0,
                0,
                0.7071068286895752
            ],
            "scale" : [
                10,
                0.10000000149011612,
                5
            ],
            "translation" : [
                0,
                5.099999904632568,
                10.100000381469727
            ]
        },
        {
            "mesh" : 2,
            "name" : "Sphere.001",
            "translation" : [
                -8,
                1.100000023841858,
                -5
            ]
        },
        {
            "mesh" : 3,
            "name" : "Sphere.002",
            "translation" : [
                4,
                1.100000023841858,
                1
            ]
        },
        {
            "mesh" : 4,
            "name" : "Sphere.003",
            "translation" : [
                8,
                1.100000023841858,
                3
            ]
        },
        {
            "mesh" : 5,
            "name" : "Sphere.004",
            "translation" : [
                0,
                1.100000023841858,
                -1
            ]
        },
        {
            "mesh" : 6,
            "name" : "Plane",
            "rotation" : [
                0,
                1,
                0,
                -4.371138828673793e-08
            ],
            "translation" : [
                0,
                0.10000000149011612,
                -0.04999999701976776
            ]
        }
    ],
    "materials" : [
        {
            "doubleSided" : true,
            "name" : "Material.005",
            "pbrMetallicRoughness" : {
                "baseColorFactor" : [
                    0.800000011920929,
                    0.800000011920929,
                    0.800000011920929,
                    1
                ],
                "roughnessFactor" : 0.6000000238418579
            }
        },
        {
            "doubleSided" : true,
            "name" : "Material.001",
            "pbrMetallicRoughness" : {
                "baseColorFactor" : [
                    0.020288564264774323,
                    0.04817184433341026,
                    0.1384316384792328,
                    1
                ]
            }
        },
        {
            "doubleSided" : true,
            "name" : "Material.006",
            "pbrMetallicRoughness" : {
                "baseColorFactor" : [
                    0.800000011920929,
                    0.800000011920929,
                    0.800000011920929,
                    1
                ],
                "roughnessFactor" : 0.800000011920929
            }
        },
        {
            "doubleSided" : true,
            "name" : "Material.003",
            "pbrMetallicRoughness" : {
                "baseColorFactor" : [
                    0.800000011920929,
                    0.800000011920929,
                    0.800000011920929,
                    1
                ],
                "roughnessFactor" : 0.20000000298023224
            }
        },
        {
            "doubleSided" : true,
            "name" : "Material.002",
            "pbrMetallicRoughness" : {
                "baseColorFactor" : [
                    0.800000011920929,
                    0.800000011920929,
                    0.800000011920929,
                    1
                ],
                "roughnessFactor" : 0
            }
        },
        {
            "doubleSided" : true,
            "name" : "Material.004",
            "pbrMetallicRoughness" : {
                "baseColorFactor" : [
                    0.800000011920929,
                    0.800000011920929,
                    0.800000011920929,
                    1
                ],
                "roughnessFactor" : 0.4000000059604645
            }
        },
        {
            "doubleSided" : true,
            "name" : "Material.008",
            "pbrMetallicRoughness" : {
                "baseColorFactor" : [
                    0.800000011920929,
                    0.800000011920929,
                    0.800000011920929,
                    1
                ],
                "metallicRoughnessTexture" : {
                    "index" : 0
                }
            }
        }
    ],
    "meshes" : [
        {
            "name" : "Sphere",
            "primitives" : [
                {
                    "attributes" : {
                        "POSITION" : 0,
                        "NORMAL" : 1,
                        "TEXCOORD_0" : 2
                    },
                    "indices" : 3,
                    "material" : 0
                }
            ]
        },
        {
            "name" : "Cube.001",
            "primitives" : [
                {
                    "attributes" : {
                        "POSITION" : 4,
                        "NORMAL" : 5,
                        "TEXCOORD_0" : 6
                    },
                    "indices" : 7,
                    "material" : 1
                }
            ]
        },
        {
            "name" : "Sphere.001",
            "primitives" : [
                {
                    "attributes" : {
                        "POSITION" : 8,
                        "NORMAL" : 9,
                        "TEXCOORD_0" : 10
                    },
                    "indices" : 3,
                    "material" : 2
                }
            ]
        },
        {
            "name" : "Sphere.002",
            "primitives" : [
                {
                    "attributes" : {
                        "POSITION" : 11,
                        "NORMAL" : 12,
                        "TEXCOORD_0" : 13
                    },
                    "indices" : 3,
                    "material" : 3
                }
            ]
        },
        {
            "name" : "Sphere.003",
            "primitives" : [
                {
                    "attributes" : {
                        "POSITION" : 14,
                        "NORMAL" : 15,
                        "TEXCOORD_0" : 16
                    },
                    "indices" : 3,
                    "material" : 4
                }
            ]
        },
        {
            "name" : "Sphere.004",
            "primitives" : [
                {
                    "attributes" : {
                        "POSITION" : 17,
                        "NORMAL" : 18,
                        "TEXCOORD_0" : 19
                    },
                    "indices" : 3,
                    "material" : 5
                }
            ]
        },
        {
            "name" : "Plane",
            "primitives" : [
                {
                    "attributes" : {
                        "POSITION" : 20,
                        "NORMAL" : 21,
                        "TEXCOORD_0" : 22
                    },
                    "indices" : 23,
                    "material" : 6
                }
            ]
        }
    ],
    "textures" : [
        {
            "sampler" : 0,
            "source" : 0
        }
    ],
    "images" : [
        {
            "mimeType" : "image/png",
            "name" : "roughness",
            "uri" : "roughness.png"
        }
    ],
    "accessors" : [
        {
            "bufferView" : 0,
            "componentType" : 5126,
            "count" : 559,
            "max" : [
                0.9999997019767761,
                1,
                0.9999994039535522
            ],
            "min" : [
                -0.9999990463256836,
                -1,
                -0.9999987483024597
            ],
            "type" : "VEC3"
        },
        {
            "bufferView" : 1,
            "componentType" : 5126,
            "count" : 559,
            "type" : "VEC3"
        },
        {
            "bufferView" : 2,
            "componentType" : 5126,
            "count" : 559,
            "type" : "VEC2"
        },
        {
            "bufferView" : 3,
            "componentType" : 5123,
            "count" : 2880,
            "type" : "SCALAR"
        },
        {
            "bufferView" : 4,
            "componentType" : 5126,
            "count" : 24,
            "max" : [
                1,
                1,
                1
            ],
            "min" : [
                -1,
                -1,
                -1
            ],
            "type" : "VEC3"
        },
        {
            "bufferView" : 5,
            "componentType" : 5126,
            "count" : 24,
            "type" : "VEC3"
        },
        {
            "bufferView" : 6,
            "componentType" : 5126,
            "count" : 24,
            "type" : "VEC2"
        },
        {
            "bufferView" : 7,
            "componentType" : 5123,
            "count" : 36,
            "type" : "SCALAR"
        },
        {
            "bufferView" : 8,
            "componentType" : 5126,
            "count" : 559,
            "max" : [
                0.9999997019767761,
                1,
                0.9999994039535522
            ],
            "min" : [
                -0.9999990463256836,
                -1,
                -0.9999987483024597
            ],
            "type" : "VEC3"
        },
        {
            "bufferView" : 9,
            "componentType" : 5126,
            "count" : 559,
            "type" : "VEC3"
        },
        {
            "bufferView" : 10,
            "componentType" : 5126,
            "count" : 559,
            "type" : "VEC2"
        },
        {
            "bufferView" : 11,
            "componentType" : 5126,
            "count" : 559,
            "max" : [
                0.9999997019767761,
                1,
                0.9999994039535522
            ],
            "min" : [
                -0.9999990463256836,
                -1,
                -0.9999987483024597
            ],
            "type" : "VEC3"
        },
        {
            "bufferView" : 12,
            "componentType" : 5126,
            "count" : 559,
            "type" : "VEC3"
        },
        {
            "bufferView" : 13,
            "componentType" : 5126,
            "count" : 559,
            "type" : "VEC2"
        },
        {
            "bufferView" : 14,
            "componentType" : 5126,
            "count" : 559,
            "max" : [
                0.9999997019767761,
                1,
                0.9999994039535522
            ],
            "min" : [
                -0.9999990463256836,
                -1,
                -0.9999987483024597
            ],
            "type" : "VEC3"
        },
        {
            "bufferView" : 15,
            "componentType" : 5126,
            "count" : 559,
            "type" : "VEC3"
        },
        {
            "bufferView" : 16,
            "componentType" : 5126,
            "count" : 559,
            "type" : "VEC2"
        },
        {
            "bufferView" : 17,
            "componentType" : 5126,
            "count" : 559,
            "max" : [
                0.9999997019767761,
                1,
                0.9999994039535522
            ],
            "min" : [
                -0.9999990463256836,
                -1,
                -0.9999987483024597
            ],
            "type" : "VEC3"
        },
        {
            "bufferView" : 18,
            "componentType" : 5126,
            "count" : 559,
            "type" : "VEC3"
        },
        {
            "bufferView" : 19,
            "componentType" : 5126,
            "count" : 559,
            "type" : "VEC2"
        },
        {
            "bufferView" : 20,
            "componentType" : 5126,
            "count" : 4,
            "max" : [
                9.980782508850098,
                0,
                10.249042510986328
            ],
            "min" : [
                -9.980782508850098,
                0,
                -10.249042510986328
            ],
            "type" : "VEC3"
        },
        {
            "bufferView" : 21,
            "componentType" : 5126,
            "count" : 4,
            "type" : "VEC3"
        },
        {
            "bufferView" : 22,
            "componentType" : 5126,
            "count" : 4,
            "type" : "VEC2"
        },
        {
            "bufferView" : 23,
            "componentType" : 5123,
            "count" : 6,
            "type" : "SCALAR"
        }
    ],
    "bufferViews" : [
        {
            "buffer" : 0,
            "byteLength" : 6708,
            "byteOffset" : 0
        },
        {
            "buffer" : 0,
            "byteLength" : 6708,
            "byteOffset" : 6708
        },
        {
            "buffer" : 0,
            "byteLength" : 4472,
            "byteOffset" : 13416
        },
        {
            "buffer" : 0,
            "byteLength" : 5760,
            "byteOffset" : 17888
        },
        {
            "buffer" : 0,
            "byteLength" : 288,
            "byteOffset" : 23648
        },
        {
            "buffer" : 0,
            "byteLength" : 288,
            "byteOffset" : 23936
        },
        {
            "buffer" : 0,
            "byteLength" : 192,
            "byteOffset" : 24224
        },
        {
            "buffer" : 0,
            "byteLength" : 72,
            "byteOffset" : 24416
        },
        {
            "buffer" : 0,
            "byteLength" : 6708,
            "byteOffset" : 24488
        },
        {
            "buffer" : 0,
            "byteLength" : 6708,
            "byteOffset" : 31196
        },
        {
            "buffer" : 0,
            "byteLength" : 4472,
            "byteOffset" : 37904
        },
        {
            "buffer" : 0,
            "byteLength" : 6708,
            "byteOffset" : 42376
        },
        {
            "buffer" : 0,
            "byteLength" : 6708,
            "byteOffset" : 49084
        },
        {
            "buffer" : 0,
            "byteLength" : 4472,
            "byteOffset" : 55792
        },
        {
            "buffer" : 0,
            "byteLength" : 6708,
            "byteOffset" : 60264
        },
        {
            "buffer" : 0,
            "byteLength" : 6708,
            "byteOffset" : 66972
        },
        {
            "buffer" : 0,
            "byteLength" : 4472,
            "byteOffset" : 73680
        },
        {
            "buffer" : 0,
            "byteLength" : 6708,
            "byteOffset" : 78152
        },
        {
            "buffer" : 0,
            "byteLength" : 6708,
            "byteOffset" : 84860
        },
        {
            "buffer" : 0,
            "byteLength" : 4472,
            "byteOffset" : 91568
        },
        {
            "buffer" : 0,
            "byteLength" : 48,
            "byteOffset" : 96040
        },
        {
            "buffer" : 0,
            "byteLength" : 48,
            "byteOffset" : 96088
        },
        {
            "buffer" : 0,
            "byteLength" : 32,
            "byteOffset" : 96136
        },
        {
            "buffer" : 0,
            "byteLength" : 12,
            "byteOffset" : 96168
        }
    ],
    "samplers" : [
        {
            "magFilter" : 9729,
            "minFilter" : 9987
        }
    ],
    "buffers" : [
        {
            "byteLength" : 96180,
            "uri" : "reflection_new.bin"
        }
    ]
}
